PathFileType	4	(X/Y/Z)	..\data\2015032\dynamic\2015032_C4_03.trc
DataRate	CameraRate	NumFrames	NumMarkers	Units	OrigDataRate	OrigDataStartFrame	OrigNumFrames
100.000000	100.000000	4	48	mm	100.000000	76	203
Frame#	Time	L_IAS			L_IPS			R_IPS			R_IAS			L_FTC			L_FLE			L_FAX			L_TTC			L_FAL			L_FCC			L_FM1			L_FM2			L_FM5			R_FTC			R_FLE			R_FAX			R_TTC			R_FAL			R_FCC			R_FM1			R_FM2			R_FM5			CV7			TV10			SXS			SJN			L_SIA			L_SRS			L_SAA			L_SAE			L_HLE			L_HME			L_UOA			L_RSP			L_UHE			L_HM2			L_HM5			R_SIA			R_SRS			R_SAA			R_SAE			R_HLE			R_HME			R_UOA			R_RSP			R_UHE			R_HM2			R_HM5			
		X1	Y1	Z1	X2	Y2	Z2	X3	Y3	Z3	X4	Y4	Z4	X5	Y5	Z5	X6	Y6	Z6	X7	Y7	Z7	X8	Y8	Z8	X9	Y9	Z9	X10	Y10	Z10	X11	Y11	Z11	X12	Y12	Z12	X13	Y13	Z13	X14	Y14	Z14	X15	Y15	Z15	X16	Y16	Z16	X17	Y17	Z17	X18	Y18	Z18	X19	Y19	Z19	X20	Y20	Z20	X21	Y21	Z21	X22	Y22	Z22	X23	Y23	Z23	X24	Y24	Z24	X25	Y25	Z25	X26	Y26	Z26	X27	Y27	Z27	X28	Y28	Z28	X29	Y29	Z29	X30	Y30	Z30	X31	Y31	Z31	X32	Y32	Z32	X33	Y33	Z33	X34	Y34	Z34	X35	Y35	Z35	X36	Y36	Z36	X37	Y37	Z37	X38	Y38	Z38	X39	Y39	Z39	X40	Y40	Z40	X41	Y41	Z41	X42	Y42	Z42	X43	Y43	Z43	X44	Y44	Z44	X45	Y45	Z45	X46	Y46	Z46	X47	Y47	Z47	X48	Y48	Z48	

77	0.76	488.915740966797	930.5209960937502	-334.3761291503907	331.4663696289063	938.9715576171877	-278.5140075683594	324.2356262207032	942.4940185546877	-170.193115234375	480.679656982422	929.217468261719	-97.94400024414065	433.3724060058595	856.765808105469	-391.9790039062501	533.4949951171876	444.3291931152345	-345.9956665039063	541.9325561523439	383.3149108886719	-345.4457397460938	599.4423828125001	391.3555603027345	-292.8870849609376	593.9142456054689	59.40787506103517	-282.1741638183594	560.4740600585939	14.34741592407227	-231.3776855468751	751.5847778320314	56.73956298828126	-233.8379821777344	739.3696899414064	56.09479141235353	-291.6826782226563	697.7275390625001	36.12334823608399	-321.1243591308594	370.2033996582032	842.9343872070315	-56.52522659301759	297.1931457519532	446.1495666503907	-105.9670867919922	271.2497253417969	395.074920654297	-113.3125915527344	330.3312683105469	370.2517089843751	-159.9308013916016	126.8464965820313	93.4268264770508	-201.0109100341797	94.51805877685548	64.58319091796876	-263.3082275390626	279.5847167968751	23.75448226928711	-225.8281860351563	265.4084167480469	30.36292266845704	-168.2489776611328	203.3189849853516	17.44633865356446	-133.6989288330078	337.3607788085938	1425.510864257813	-217.2525024414063	283.4925231933594	1197.818725585938	-205.4028015136719	464.3059082031251	1171.340576171875	-227.4891815185547	437.0677490234376	1336.14892578125	-224.8597564697266	250.8784637451172	1224.4462890625	-311.1692810058594	280.8612365722657	1349.607177734375	-311.6266479492188	341.2148132324219	1358.344970703125	-406.260711669922	385.385467529297	1356.038330078125	-420.2864379882814	312.6591186523438	1050.565551757813	-430.4126281738282	299.9284973144532	1046.748168945313	-355.9124145507813	280.1649475097657	1024.708862304688	-392.486053466797	379.0236816406251	804.1539306640627	-406.8446044921876	317.3081665039063	817.122741699219	-448.841766357422	384.1416625976564	718.8098754882814	-405.4240112304689	292.5393371582032	744.3158569335939	-441.8373107910157	279.2789916992188	1236.041748046875	-84.96723937988283	304.2068481445313	1353.872802734375	-108.4803466796875	382.5403747558594	1361.740600585938	-27.10175132751466	428.8379516601564	1362.81787109375	-21.95669174194336	439.0724487304689	1051.355224609375	19.13243675231934	405.303192138672	1038.923828125	-45.30243301391602	407.1234436035157	1016.767272949219	-0.5978099107742311	580.8769531250001	850.9472656250002	-42.74990463256837	542.7208251953126	835.9766235351565	17.99417304992676	630.9851684570314	774.744567871094	-42.55989074707032	553.5668334960939	762.5190429687501	22.29386901855469	
78	0.77	498.7402343750001	931.056091308594	-334.6467285156251	341.1584777832032	939.2448730468752	-279.0763244628907	333.6690063476563	942.4916992187502	-170.8501586914063	489.6297607421876	929.0998535156252	-98.07756042480472	443.3171386718751	857.342468261719	-392.3462829589845	541.2942504882814	444.3409729003907	-346.1523437500001	549.1227416992189	383.2259521484376	-345.6312561035157	606.3467407226564	390.545135498047	-292.6137390136719	595.7609863281251	58.84484100341798	-282.0426940917969	560.9760131835939	14.72742176055909	-231.3537139892579	753.2861938476564	52.70705413818361	-233.8629913330079	740.9842529296876	52.39086914062501	-291.8771667480469	698.6423339843751	33.63336563110352	-321.2334899902344	379.1883544921876	842.7620849609377	-57.19158172607423	305.4448852539063	446.704315185547	-106.7606048583985	278.6557922363282	396.016815185547	-113.9443130493164	337.8533935546876	369.8538818359376	-159.9376220703125	128.725082397461	96.82556152343753	-200.6900634765626	96.12928009033206	68.64908599853517	-262.9983215332032	279.9677429199219	23.54104804992676	-225.6184844970704	265.6054382324219	30.24603843688966	-168.1363677978516	203.7688293457032	17.91923713684082	-134.0670013427735	345.0572204589844	1425.433959960938	-218.3364410400391	291.9072875976563	1197.51171875	-206.547348022461	472.9195556640626	1171.762451171875	-227.9555358886719	444.9765014648439	1336.413696289063	-225.4713439941407	259.6097106933594	1223.918212890625	-312.5337524414063	289.1084289550782	1349.220458984375	-312.9191894531251	349.8450317382813	1358.158447265625	-407.2819824218751	394.0161132812501	1355.99462890625	-421.1197204589845	322.5094604492188	1050.217407226563	-431.2040405273439	309.3801269531251	1046.639526367188	-357.0475769042969	289.8713684082032	1024.34326171875	-393.451385498047	389.3193969726564	804.0215454101565	-406.7654724121095	327.8605651855469	816.7614746093752	-449.1861267089845	394.6182556152345	718.6892700195314	-405.0973205566407	303.2064208984376	743.9235229492189	-442.1814880371095	286.8961486816407	1235.723022460938	-86.34851837158205	311.5339355468751	1353.695922851563	-109.7422256469727	389.4436645507814	1361.832275390625	-27.99472999572755	435.7127685546876	1363.045043945313	-22.59786224365235	445.4409179687501	1051.514892578125	18.27297019958496	411.8706359863282	1039.239379882813	-46.35046005249024	413.4937438964845	1017.051574707031	-1.63936448097229	586.7205810546876	850.4771728515627	-42.66657257080079	548.1395874023439	835.7156982421877	17.90652656555176	636.4459228515626	774.0241699218752	-42.12120437622071	558.6429443359376	762.2250976562501	22.34524917602539	
79	0.78	508.551971435547	931.7446899414065	-335.0107421875001	350.8777465820313	939.6409912109377	-279.5776367187501	343.1728820800782	942.562194824219	-171.4279479980469	498.7069091796876	929.0504150390627	-98.32414245605472	453.1881408691407	858.0916748046877	-392.798309326172	548.9082641601564	444.4362792968751	-346.4849243164063	556.1394653320314	383.2279968261719	-345.9867248535157	613.0642089843751	389.8635559082032	-292.5386657714844	597.5522460937501	58.46534347534181	-282.0247192382813	561.5391845703126	15.2504472732544	-231.4184112548829	754.8872070312501	49.00994110107423	-233.8911743164063	742.5593872070314	49.00772094726564	-292.0892944335938	699.5531005859376	31.45871162414551	-321.4588012695313	388.4001464843751	842.599548339844	-57.84875869750978	314.3675231933594	447.1583557128907	-107.5647048950196	286.7030334472657	396.9170227050782	-114.5481185913086	345.9885864257813	369.3182373046876	-159.9049530029297	130.9192657470703	100.491928100586	-200.243637084961	98.05313110351565	73.1121063232422	-262.5826721191407	280.3132934570313	23.23894691467286	-225.4900512695313	265.8041687011719	30.09223175048829	-168.0962677001953	204.2655944824219	18.46284675598145	-134.4820251464844	352.7461547851563	1425.449951171875	-219.4610595703126	300.3789367675782	1197.281127929688	-207.6753082275391	481.5774536132814	1172.307983398438	-228.4204711914063	452.9126281738282	1336.78564453125	-226.0988311767579	268.3976440429688	1223.46337890625	-313.9328308105469	297.3908996582032	1348.90185546875	-314.2359619140626	358.5243530273438	1358.058349609375	-408.3179931640626	402.7103881835939	1356.044067382813	-421.948944091797	332.5264282226563	1049.969360351563	-432.1624145507814	318.9435119628907	1046.589599609375	-358.3504333496094	299.7535705566407	1024.040405273438	-394.6131591796876	399.9140625000001	804.007751464844	-406.8381958007814	338.7592773437501	816.4990234375002	-449.7461547851564	405.4579162597657	718.7016601562501	-404.9752807617189	314.2593994140626	743.6077270507814	-442.8064270019532	294.5827026367188	1235.498779296875	-87.72859954833986	318.8909301757813	1353.599975585938	-111.0296096801758	396.3624572753907	1362.054565429688	-28.91813659667969	442.5943603515626	1363.428833007813	-23.27546691894532	451.7220458984376	1051.821655273438	17.37715721130371	418.3357543945314	1039.74267578125	-47.46673965454102	419.7728881835939	1017.499389648438	-2.737810850143433	592.3828735351564	850.0533447265627	-42.51896667480469	553.3251342773439	835.541931152344	17.86009407043457	641.6488647460939	773.3104248046877	-41.59436035156251	563.4270019531251	762.0147094726564	22.44966506958008	
80	0.79	518.3159179687501	932.5679321289065	-335.4716796875001	360.5898132324219	940.1484985351565	-280.0315246582032	352.7005615234376	942.700866699219	-171.9397125244141	507.8705444335939	929.0662841796877	-98.69634246826175	462.9564208984376	858.990661621094	-393.339813232422	556.3286132812501	444.6029052734376	-346.9664916992188	562.9667968750001	383.3081359863282	-346.4837646484376	619.5832519531251	389.294891357422	-292.6392211914063	599.2743530273439	58.24331665039064	-282.0948791503907	562.1654663085939	15.86434268951416	-231.5508270263672	756.3787841796876	45.67849349975587	-233.8809661865235	744.0950317382814	45.98629379272462	-292.2757568359376	700.4660034179689	29.62285232543946	-321.7759094238282	397.7924804687501	842.4410400390627	-58.501033782959	324.0325927734376	447.4675903320314	-108.3416213989258	295.4770812988282	397.7371520996095	-115.0832290649414	354.8070068359376	368.6145629882813	-159.8055114746094	133.4870147705078	104.4485092163086	-199.6314086914063	100.3454132080078	78.03254699707033	-262.0219116210938	280.5951538085938	22.87140464782715	-225.4629974365235	266.0071411132813	29.91787338256837	-168.1502075195313	204.809310913086	19.10147285461426	-134.9379272460938	360.4239196777344	1425.550048828125	-220.6164855957032	308.8948364257813	1197.123046875	-208.7788848876954	490.2662048339845	1172.963989257813	-228.8790283203126	460.8732910156251	1337.254638671875	-226.7380981445313	277.2295837402344	1223.083129882813	-315.3527526855469	305.7001037597657	1348.64794921875	-315.5632324218751	367.2378540039063	1358.04150390625	-409.3592529296876	411.4540100097657	1356.184692382813	-422.7680969238282	342.7141418457032	1049.817260742188	-433.2805175781251	328.6091003417969	1046.58984375	-359.8059692382813	309.8079528808594	1023.796936035156	-395.9675292968751	410.8044738769532	804.1120605468752	-407.0582885742189	350.0062255859376	816.3362426757815	-450.5224609375001	416.6535949707032	718.8440551757814	-405.0498046875001	325.6983032226563	743.3703002929689	-443.714080810547	302.3409729003907	1235.368896484375	-89.08905029296876	326.2809448242188	1353.578857421875	-112.3302383422852	403.3034973144532	1362.404663085938	-29.86476516723634	449.4886169433595	1363.967529296875	-23.98820304870606	457.9118957519532	1052.273315429688	16.45219230651856	424.7025451660157	1040.431396484375	-48.6466407775879	425.9578857421876	1018.107849121094	-3.887200117111207	597.8721923828126	849.6812744140627	-42.30941009521485	558.2836914062501	835.4590454101565	17.85219383239746	646.5985717773439	772.6113281250002	-40.98802947998048	567.9248657226564	761.8922729492189	22.59795188903809	
